<?xml version="1.0" encoding="UTF-8"?>
<!DOCTYPE svg PUBLIC "-//W3C//DTD SVG 1.1//EN" "http://www.w3.org/Graphics/SVG/1.1/DTD/svg11.dtd">
<!-- Creator: CorelDRAW -->
<svg xmlns="http://www.w3.org/2000/svg" xml:space="preserve" width="207.158mm" height="162.74mm" version="1.1" style="shape-rendering:geometricPrecision; text-rendering:geometricPrecision; image-rendering:optimizeQuality; fill-rule:evenodd; clip-rule:evenodd"
viewBox="0 0 2464.2 1933.96"
 xmlns:xlink="http://www.w3.org/1999/xlink"
 xmlns:xodm="http://www.corel.com/coreldraw/odm/2003">
 <defs>
  <style type="text/css">
   <![CDATA[
    .str0 {stroke:#03BBCD;stroke-width:3.29;stroke-miterlimit:22.9256}
    .fil1 {fill:#FEFEFE}
    .fil0 {fill:#FEFEFE;fill-rule:nonzero}
    .fil2 {fill:#03BBCD;fill-rule:nonzero}
   ]]>
  </style>
 </defs>
 <g id="Layer_x0020_1">
  <metadata id="CorelCorpID_0Corel-Layer"/>
  <g id="_3118213290544">
   <path class="fil0" d="M427.45 1819.53l0 38.14 44.87 0 0 17.39 -44.87 0 0 39.83 50.48 0 0 17.39 -71.79 0 0 -130.13 71.79 0 0 17.39 -50.48 0zm138.7 -3.92c-3.86,0 -7.1,-1.31 -9.72,-3.93 -2.61,-2.62 -3.92,-5.86 -3.92,-9.72 0,-3.86 1.31,-7.11 3.92,-9.72 2.62,-2.61 5.86,-3.92 9.72,-3.92 3.74,0 6.92,1.31 9.54,3.92 2.62,2.62 3.92,5.86 3.92,9.72 0,3.87 -1.3,7.1 -3.92,9.72 -2.62,2.62 -5.8,3.93 -9.54,3.93zm10.47 116.67l-21.31 0 0 -103.02 21.31 0 0 103.02zm72.15 -51.98c0,-10.35 2.12,-19.5 6.35,-27.49 4.37,-7.98 10.23,-14.14 17.57,-18.51 7.48,-4.49 15.78,-6.73 24.88,-6.73 6.73,0 13.33,1.49 19.81,4.49 6.61,2.86 11.85,6.73 15.7,11.59l0 -49.73 21.5 0 0 138.35 -21.5 0 0 -15.52c-3.48,4.98 -8.34,9.1 -14.57,12.34 -6.12,3.24 -13.16,4.86 -21.14,4.86 -8.97,0 -17.2,-2.24 -24.69,-6.73 -7.35,-4.61 -13.2,-10.97 -17.57,-19.07 -4.23,-8.22 -6.35,-17.51 -6.35,-27.86zm84.31 0.37c0,-7.1 -1.49,-13.28 -4.48,-18.51 -2.87,-5.24 -6.66,-9.23 -11.41,-11.97 -4.72,-2.74 -9.84,-4.11 -15.32,-4.11 -5.49,0 -10.6,1.37 -15.33,4.11 -4.74,2.62 -8.6,6.54 -11.59,11.78 -2.87,5.11 -4.3,11.22 -4.3,18.32 0,7.1 1.43,13.34 4.3,18.69 2.99,5.36 6.85,9.48 11.59,12.34 4.86,2.74 9.97,4.11 15.33,4.11 5.48,0 10.6,-1.37 15.32,-4.11 4.75,-2.74 8.55,-6.73 11.41,-11.96 2.99,-5.36 4.48,-11.59 4.48,-18.7zm337.43 -78.34l0 129.94 -21.31 0 0 -89 -39.64 89 -14.77 0 -39.83 -89 0 89 -21.3 0 0 -129.94 22.98 0 45.63 101.9 45.43 -101.9 22.81 0zm172.55 26.93l0 103.02 -21.31 0 0 -12.15c-3.37,4.23 -7.8,7.6 -13.28,10.09 -5.35,2.37 -11.09,3.55 -17.19,3.55 -8.11,0 -15.4,-1.69 -21.87,-5.05 -6.36,-3.37 -11.41,-8.35 -15.16,-14.96 -3.6,-6.61 -5.42,-14.58 -5.42,-23.93l0 -60.58 21.14 0 0 57.4c0,9.22 2.31,16.33 6.91,21.31 4.61,4.87 10.91,7.29 18.88,7.29 7.99,0 14.28,-2.42 18.88,-7.29 4.74,-4.99 7.11,-12.09 7.11,-21.31l0 -57.4 21.31 0zm100.56 15.33c3.6,-4.99 8.53,-9.04 14.76,-12.15 6.36,-3.24 13.41,-4.86 21.14,-4.86 9.09,0 17.33,2.18 24.67,6.54 7.36,4.36 13.16,10.59 17.4,18.69 4.23,7.98 6.35,17.14 6.35,27.49 0,10.35 -2.12,19.63 -6.35,27.86 -4.23,8.1 -10.1,14.46 -17.57,19.07 -7.36,4.49 -15.52,6.73 -24.5,6.73 -7.99,0 -15.09,-1.56 -21.31,-4.68 -6.1,-3.12 -10.98,-7.11 -14.58,-11.96l0 14.96 -21.32 0 0 -138.35 21.32 0 0 50.67zm62.63 35.71c0,-7.11 -1.5,-13.21 -4.48,-18.32 -2.88,-5.24 -6.73,-9.16 -11.61,-11.78 -4.74,-2.74 -9.84,-4.11 -15.32,-4.11 -5.37,0 -10.47,1.37 -15.33,4.11 -4.74,2.74 -8.6,6.73 -11.59,11.97 -2.87,5.23 -4.3,11.4 -4.3,18.51 0,7.11 1.43,13.34 4.3,18.7 2.99,5.23 6.85,9.22 11.59,11.96 4.86,2.74 9.97,4.11 15.33,4.11 5.48,0 10.58,-1.37 15.32,-4.11 4.87,-2.86 8.72,-6.98 11.61,-12.34 2.98,-5.36 4.48,-11.59 4.48,-18.69zm86.91 0c0,-10.35 2.13,-19.5 6.36,-27.49 4.36,-7.98 10.23,-14.14 17.57,-18.51 7.48,-4.49 15.7,-6.73 24.69,-6.73 8.1,0 15.14,1.62 21.12,4.86 6.1,3.11 10.96,7.04 14.58,11.78l0 -14.95 21.51 0 0 103.02 -21.51 0 0 -15.33c-3.62,4.86 -8.53,8.91 -14.77,12.15 -6.23,3.24 -13.34,4.86 -21.31,4.86 -8.85,0 -16.94,-2.24 -24.3,-6.73 -7.35,-4.61 -13.22,-10.97 -17.57,-19.07 -4.23,-8.22 -6.36,-17.51 -6.36,-27.86zm84.33 0.37c0,-7.1 -1.49,-13.28 -4.48,-18.51 -2.88,-5.24 -6.68,-9.23 -11.41,-11.97 -4.74,-2.74 -9.84,-4.11 -15.33,-4.11 -5.48,0 -10.6,1.37 -15.33,4.11 -4.74,2.62 -8.59,6.54 -11.59,11.78 -2.87,5.11 -4.29,11.22 -4.29,18.32 0,7.1 1.42,13.34 4.29,18.69 3,5.36 6.85,9.48 11.59,12.34 4.87,2.74 9.98,4.11 15.33,4.11 5.49,0 10.6,-1.37 15.33,-4.11 4.74,-2.74 8.53,-6.73 11.41,-11.96 2.99,-5.36 4.48,-11.59 4.48,-18.7zm122.07 -36.46c3.11,-5.23 7.22,-9.29 12.33,-12.15 5.24,-2.99 11.41,-4.49 18.51,-4.49l0 22.06 -5.42 0c-8.36,0 -14.71,2.12 -19.06,6.36 -4.25,4.24 -6.36,11.59 -6.36,22.06l0 54.22 -21.33 0 0 -103.02 21.33 0 0 14.95zm94.57 36.09c0,-10.35 2.13,-19.5 6.36,-27.49 4.37,-7.98 10.23,-14.15 17.57,-18.51 7.48,-4.49 15.71,-6.73 24.69,-6.73 8.1,0 15.14,1.62 21.12,4.86 6.12,3.11 10.96,7.04 14.58,11.78l0 -14.95 21.5 0 0 103.02 -21.5 0 0 -15.33c-3.62,4.86 -8.53,8.91 -14.76,12.15 -6.24,3.24 -13.34,4.86 -21.33,4.86 -8.85,0 -16.94,-2.24 -24.3,-6.73 -7.35,-4.61 -13.2,-10.97 -17.57,-19.07 -4.23,-8.22 -6.36,-17.51 -6.36,-27.86zm84.33 0.37c0,-7.1 -1.49,-13.28 -4.48,-18.51 -2.88,-5.24 -6.68,-9.23 -11.41,-11.97 -4.74,-2.74 -9.85,-4.11 -15.32,-4.11 -5.49,0 -10.61,1.37 -15.35,4.11 -4.72,2.62 -8.59,6.54 -11.58,11.78 -2.88,5.11 -4.3,11.22 -4.3,18.32 0,7.1 1.42,13.34 4.3,18.69 2.99,5.36 6.85,9.48 11.58,12.34 4.87,2.74 9.98,4.11 15.35,4.11 5.47,0 10.58,-1.37 15.32,-4.11 4.74,-2.74 8.53,-6.73 11.41,-11.96 2.99,-5.36 4.48,-11.59 4.48,-18.7zm141.51 0.19l47.49 51.42 -28.8 0 -38.13 -44.31 0 44.31 -21.32 0 0 -138.35 21.32 0 0 80.39 37.4 -45.06 29.53 0 -47.49 51.6z"/>
   <path class="fil0" d="M1088.11 389.88c0,0 -12.94,-60.24 -37.6,-73.29 0,0 -5.99,11.41 -8.96,11.41 -2.92,0 -31.19,-30.39 -16.34,-45.6 14.65,-15.43 45.93,15.74 61.25,57.74 0,0 27.68,-76.79 43.64,-77.42 16.07,-0.48 26.68,33.73 26.68,33.73 0,0 -22.43,-14.69 -29,-7.48 -6.27,7 -33.15,66.02 -39.67,100.92z"/>
   <path class="fil0" d="M237.87 1165.83c0,0 -12.93,-60.24 -37.59,-73.3 0,0 -6,11.4 -8.96,11.4 -2.93,0 -31.24,-30.38 -16.39,-45.6 14.69,-15.43 45.98,15.76 61.3,57.76 0,0 27.68,-76.79 43.59,-77.42 16.07,-0.48 26.73,33.73 26.73,33.73 0,0 -22.49,-14.69 -29.06,-7.48 -6.31,7 -33.14,65.96 -39.61,100.92z"/>
   <path class="fil0" d="M972.03 768.44l15.76 -31.81c0,0 46.88,37.37 6.2,130.97 0,0.04 23.28,-88.77 -21.96,-99.16z"/>
   <path class="fil0" d="M644.86 382.87c0,0 -79.24,135.54 -11.78,141.74 29.38,2.76 29.38,-52.66 29.38,-52.66 0,0 -11.35,32.36 -33.08,23.87 -24.67,-9.49 15.48,-112.95 15.48,-112.95z"/>
   <path class="fil0" d="M1065.77 1323.31l15.81 -31.83c0,0 46.82,37.38 6.2,130.98 0.07,0 23.28,-88.76 -22.01,-99.15z"/>
   <path class="fil1" d="M720.85 1432.22c77.31,-22.58 127.95,-48.61 151.97,-77.37 10.98,-9.27 20.69,-15.91 28.85,-19.72 8.75,19.25 20.25,22.16 34.88,9.17 2.81,-1.28 5.46,-4.67 7.8,-10.04 -23.96,-1.9 -34.85,-9.91 -32.09,-24.17 7.32,-35.36 19.09,-49.95 35.69,-45.07 9.82,1.95 19.68,4.98 29.59,10.45 -40.29,4.93 -55.15,12.99 -44.12,24.39 7.91,4.89 19.31,7.43 35.16,7.26 14.8,-10.23 30.44,-22.27 47.13,-36.37 -2.07,9.34 -4.07,18.35 -6.09,27.79 -21.16,15.74 -38.23,31.5 -51.28,47.09 -21.1,24.07 -34.94,33.51 -41.04,29.06 -11.66,-2.98 -21.79,-6.31 -30.58,-11.03 -57.43,53.03 -112.15,75.73 -165.87,68.56z"/>
   <path class="fil2 str0" d="M1458.34 1510.07c0,0 14.25,-29.44 39.45,-53.77 0,0 44.92,41.31 65.59,56.42 0,0 -23.27,37.59 -33.34,59.6 -39.67,-23.34 -71.7,-62.25 -71.7,-62.25zm-532.29 -874.79c-45.92,-179.44 -149.64,-446.49 -161.68,-468.55 -11.44,-9.22 -86.91,-8 -120.89,16.55 92.26,189.04 214.27,514.21 174.57,579.27 -98.9,161.41 -459.38,652.08 -809.2,429.94 0,0 224.83,255.64 596.03,-118.09 -38.24,62.52 -111.68,144.56 -237.78,197.15 0,0 121.27,4.78 305.01,-187.18 176.42,-184.68 298.44,-275.89 253.94,-449.08zm-521.09 212.53c80.5,32.35 137.6,-7.26 165.5,-28.84 26.24,-20.32 34.04,-23.92 42.85,-27.1 -19.84,11.09 -37.49,32.35 -67.98,52.98 -30.49,20.26 -77.53,28.69 -77.53,28.69 0,0 64.64,11.4 148.42,-59.18 18.78,-15.85 36.01,-25.34 47.78,-21.32 12.89,-24.24 12.15,-41.95 12.15,-41.95 0,0 -17.67,-4.41 -30.82,-1.06 -49.63,11.77 -59.91,50.37 -94.12,52.61 -34.52,2.17 -78.63,-12.89 -102.87,-27.95 -24.23,-15.11 -35.21,-36.91 -29,-54.08 4.03,-12.89 14.1,-19.95 20.15,-20.26 -5.15,3.66 -15.8,13.53 -14.69,31.61 2.92,28.32 32.3,36.43 32.3,36.43 0,0 -26.78,-26.09 -12.84,-47.83 29.38,-43.43 80.44,22 80.44,22 0,0 24.13,-25.18 29.38,-42.26 0,0 -110.19,-85.69 -149.91,4.41 -34.89,79.42 95.19,118.41 126.42,115.85 0,0 -61.24,49.01 -152.13,8.86 10.45,12.3 26.51,18.39 26.51,18.39zm1373.98 -127.63c-18.34,-64.21 -91.89,-145.24 -152.03,-203.42 -49.58,-47.83 -119.31,-68.19 -186.81,-54.4l-39.24 8.06 10.66 39.67c-0.59,50.53 -13.63,149.85 -96.94,231.24 -1.3,-37.11 -10.34,-70.58 -16.96,-89.19 -32.35,-88.29 -67.99,-183.15 -67.99,-183.15 0,0 -57.32,-33.09 -137.82,9.23 0,0 84.16,165.87 98.9,242.02 0,0 16.18,55.19 -4.08,72.05 -20.15,16.97 -60.6,18.83 -114.27,-107.74 -41.89,-98.53 -91.89,-278.76 -163.17,-509.38 -52.08,-188.3 -196.31,-173.24 -196.31,-173.24 0,0 99.1,27.27 148.11,182.42 72.38,237.19 137.44,446.49 137.44,446.49 0,0 22.06,70.26 57.76,135 20.25,36.43 63.52,87.18 142.15,66.93 78.65,-20.21 64.65,-109.19 64.65,-109.19 0,0 15.1,41.15 2.23,78.69 -22.38,57.37 -73.12,65.45 -131.56,58.44 36.37,42.31 98.16,44.5 133.05,12.89 14.22,-13.05 24.44,-27.99 31.87,-43.75 41.67,-26.63 126.09,-92.06 145.24,-196.05 0,-0.74 0,-1.38 0.4,-2.06l7.78 28.89c38.61,144.87 141.11,232.79 226,204.1 84.9,-28.26 45.55,-161.4 45.55,-161.4 0,0 61.73,129.44 -23.48,175.4 -105.42,57.06 -206.55,-77.95 -206.91,-78.32 67.98,153.73 191.12,125.78 230.4,105.53 35.75,-18.04 87.86,-72.43 55.52,-185.75l-0.12 0zm-192.54 83.14c-70.15,-42.31 -89.3,-160.78 -81.55,-220.7 0,0 107.27,77.64 148.42,139.04 41.15,61.47 3.35,123.94 -66.87,81.67zm-273.52 83.84c0,0 14.32,-29.42 39.46,-53.77 0,0 44.96,41.3 65.65,56.42 0,0 -23.34,37.66 -33.41,59.6 -39.67,-23.32 -71.7,-62.25 -71.7,-62.25zm-229.07 201.98c0,0 67.23,-15.48 100.7,-73.17 0,0 -139.63,-183.85 -281.89,-51.14 -142.17,132.79 -422.58,624.51 -772.4,402.37 0,0 224.89,255.64 596.03,-118.08 -38.18,62.51 -111.68,144.54 -237.72,197.15 0,0 131.56,14 304.95,-187.18 172.4,-199.81 221.98,-269.64 290.33,-169.95zm1304.1 145.93c-130.5,-10.3 -186.28,76.89 -272.3,55.19 -86.38,-22.05 -182.62,-93.07 -230.03,-149.32 -47.41,-56.27 -47.83,-127.37 -29,-156.95 18.72,-29.49 53.35,-38.71 66.5,-31.35 -17.18,3.82 -48.64,15.85 -58.17,60.04 -15.11,72.05 47.08,120.89 47.08,120.89 0,0 -45.17,-84.94 5.57,-127.62 105.79,-83.1 180.4,117.34 180.4,117.34 0,0 62.73,-29.01 105.42,-80.18 0,0 -203.2,-297.17 -371.57,-107.01 -148.05,167.34 140.73,365.56 219.01,383.97 0,0 -194.02,44.85 -306.08,-56.69 -22.58,-22.58 -40.09,-50 -49.89,-80.44 -0.79,-2.44 -1.54,-4.67 -2.23,-6.75 -32.34,-88.29 -67.98,-183.14 -67.98,-183.14 0,0 -57.38,-33.1 -137.87,9.23 0,0 84.21,165.86 98.84,242 0,0 16.17,55.2 -4.03,72.07 -17.13,14.31 -62.21,-3.77 -96.63,-62.62 -9.53,-16.23 -95.59,-260.68 -95.59,-260.68 0,0 -57.33,-33.1 -137.82,9.23 0,0 78.63,159.23 102.5,238.29 0,0 15.12,48.2 -7.74,75.78 -28.63,34.57 -108.75,19.46 -176.42,-82.03 -55.46,-83.83 -114.64,-87.55 -180.01,-35.64 0,0 69.83,-29.06 115.38,18.04 51.49,52.59 107.28,189.78 240,153.35 102.5,-28.32 77.53,-122.49 77.53,-122.49 0,0 14.32,40.82 2.17,78.74 -21.63,61.35 -100.64,74.6 -159.07,67.61 51.44,37.54 125.67,35.31 160.56,3.7 28,-25.71 41.04,-58.43 45.81,-91.31 24.4,32.99 65.5,71.37 122.71,56.58 82.25,-21.27 63,-115.34 63,-115.34 0,0 15.12,41.19 2.23,78.74 -22.43,57.37 -73.12,65.44 -131.61,58.44 36.37,42.31 98.15,44.49 133.05,12.88 36.91,-33.93 47.99,-80.07 48.03,-122.59 3.51,2.91 7,5.89 11.14,9.33 171.96,143.01 348.38,89.09 433.65,56.75 62.94,-22.86 101.18,-29.49 121.59,-29.17 -57.74,11.77 -117.25,50.37 -208.02,76.09 -91.16,25.71 -212.8,9.23 -212.8,9.23 0,0 149.59,78.69 411.22,-28.32 58.49,-23.87 108.07,-34.2 133.41,-14.38 50.75,-48.9 62.47,-93.07 62.47,-93.07 0,0 -39.5,-24.6 -74.39,-26.45zm-836.93 274.99c0,0 14.26,-29.44 39.39,-53.77 0,0 44.96,41.31 65.65,56.42 0,0 -23.28,37.59 -33.36,59.6 -39.72,-23.34 -71.68,-62.25 -71.68,-62.25z"/>
  </g>
 </g>
</svg>
